# xmcd CD database file
#
# Track frame offsets:
#	150
#	30850
#	63581
#	95632
#	139446
#	176055
#	206938
#	231969
#
# Disc length: 3453 seconds
#
# Revision: 0
# Processed by: cddbd v1.5.2PL0 Copyright (c) Steve Scherf et al.
# Submitted via: CDex 1.51
#
DISCID=760d7b08
DTITLE=Francesco Cafiso Quartet - Seven Steps to Heaven
DYEAR=2006
DGENRE=Jazz
TTITLE0=Seven Steps To Heaven
TTITLE1=Green Chimneys
TTITLE2=Yesterdays
TTITLE3=On The Trail
TTITLE4=My Funny Valentine
TTITLE5=Milestones
TTITLE6=Crazeology
TTITLE7=Skylark
EXTD=YEAR: 2006
EXTT0=
EXTT1=
EXTT2=
EXTT3=
EXTT4=
EXTT5=
EXTT6=
EXTT7=
PLAYORDER=
